# xmcd
#
# Track frame offsets: 
#        150
#        20975
#        42300
#        63775
#        85400
#        105800
#        127762
#        143112
#        162612
#        181712
#        202050
#        220750
#        241387
#
# Disc length: 3400 seconds
#
# Revision: 2
# Processed by: cddbd v1.5.2PL0 Copyright (c) Steve Scherf et al.
# Submitted via: ExactAudioCopyFreeDBPlugin 1.0
#
DISCID=b00d460d
DTITLE=呂方 - 戀愛季節經典13首
DYEAR=1992
DGENRE=Blues
TTITLE0=請妳跟我走
TTITLE1=地久天長
TTITLE2=不捨得你
TTITLE3=最後一次別離
TTITLE4=你的淺笑
TTITLE5=月兒能做證
TTITLE6=彎彎的月亮
TTITLE7=天老情未老
TTITLE8=這一刻當你回頭
TTITLE9=午夜溫馨
TTITLE10=雨中抱擁
TTITLE11=別再講他
TTITLE12=夜半輕私語
EXTD=YEAR: 1992
EXTT0=
EXTT1=
EXTT2=
EXTT3=
EXTT4=
EXTT5=
EXTT6=
EXTT7=
EXTT8=
EXTT9=
EXTT10=
EXTT11=
EXTT12=
PLAYORDER=
